<?xml version="1.0" encoding="UTF-8"?><svg id="Layer_2" xmlns="http://www.w3.org/2000/svg" viewBox="0 0 480.93 83.33"><defs><style>.cls-1{fill:none;stroke:#e4276c;stroke-linecap:round;stroke-linejoin:round;stroke-width:2.83px;}.cls-2{fill:#7c1ac6;}.cls-3{fill:#141414;}.cls-4{fill:#e4276c;}</style></defs><g id="Layer_2-2"><rect class="cls-3" x="0" y="73.33" width="480.93" height="10" rx="4.59" ry="4.59"/><polygon class="cls-2" points="1.33 8.63 1.33 55.48 15.45 55.48 15.45 20.64 21.68 20.64 21.68 55.43 36.01 55.43 36.01 20.65 42.98 20.65 42.98 55.46 57.04 55.46 57.04 8.63 1.33 8.63"/><path class="cls-2" d="M105.12,20.66h-23.37v5.04h23.37v-5.04ZM69.53,8.49h47.65v29.48h-35.51v5.51h35.53v11.94h-47.68V8.49Z"/><path class="cls-2" d="M285.69,20.65h-24.1v5.05h24.1v-5.05ZM297.13,8.61v29.32h-35.6v5.51h35.5v11.96h-46.9V8.61h47.01Z"/><polygon class="cls-2" points="236.87 8.55 236.87 20.29 202.15 20.29 202.15 43.3 225.36 43.3 225.36 38.19 207.6 38.19 207.6 26.15 236.75 26.15 236.75 55.43 189.36 55.43 189.36 8.55 236.87 8.55"/><path class="cls-2" d="M141.79,25.7h23.4v-5.06h-23.4v5.06ZM179.53,55.52c-4.82,0-14.88-.09-14.88-.09l-12.33-17.31-10.52-.1v17.31h-12.04V8.54h47.53v29.5h-10.23c4.24,5.89,8.01,11.14,12.26,17.06"/><path class="cls-4" d="M313.94,32.01c0-12.43,9.93-22.81,22.43-22.81,7.5,0,14.04,3.59,18.01,9.16l-6.79,4.94c-2.5-3.52-6.22-5.7-10.89-5.7-8.01,0-13.84,6.54-13.84,14.42s5.77,14.48,13.78,14.48c4.74,0,8.46-2.18,10.96-5.7l6.79,4.93c-3.97,5.58-10.51,9.16-18.01,9.16-12.5,0-22.43-10.32-22.43-22.88Z"/><path class="cls-4" d="M361.75,38.55V9.97h8.91v28.01c0,6.02,3.85,8.46,7.95,8.46s8.01-2.44,8.01-8.46V9.97h8.91v28.58c0,10.13-7.88,16.34-16.92,16.34s-16.86-6.22-16.86-16.34Z"/><path class="cls-4" d="M439.29,41.5c0,6.09-4.17,12.62-13.91,12.62h-18.84V9.97h17.5c7.88,0,12.95,4.74,12.95,11.41,0,3.27-1.28,7.69-6.09,9.16,5.64.96,8.4,5.96,8.4,10.96ZM423.53,17.85h-8.08v9.68h8.08c2.82,0,4.55-1.86,4.55-4.87,0-2.69-1.41-4.81-4.55-4.81ZM424.11,46.24c4.17,0,6.22-2.69,6.22-5.64,0-2.76-1.86-5.64-6.09-5.64h-8.78v11.28h8.65Z"/><path class="cls-4" d="M457.11,46.24h19.35v7.88h-28.26V9.97h27.69v7.88h-18.78v10.51h16.47v8.01h-16.47v9.87Z"/><path class="cls-1" d="M313.94,32.01c0-12.43,9.93-22.81,22.43-22.81,7.5,0,14.04,3.59,18.01,9.16l-6.79,4.94c-2.5-3.52-6.22-5.7-10.89-5.7-8.01,0-13.84,6.54-13.84,14.42s5.77,14.48,13.78,14.48c4.74,0,8.46-2.18,10.96-5.7l6.79,4.93c-3.97,5.58-10.51,9.16-18.01,9.16-12.5,0-22.43-10.32-22.43-22.88Z"/><path class="cls-1" d="M361.75,38.55V9.97h8.91v28.01c0,6.02,3.85,8.46,7.95,8.46s8.01-2.44,8.01-8.46V9.97h8.91v28.58c0,10.13-7.88,16.34-16.92,16.34s-16.86-6.22-16.86-16.34Z"/><path class="cls-1" d="M439.29,41.5c0,6.09-4.17,12.62-13.91,12.62h-18.84V9.97h17.5c7.88,0,12.95,4.74,12.95,11.41,0,3.27-1.28,7.69-6.09,9.16,5.64.96,8.4,5.96,8.4,10.96ZM423.53,17.85h-8.08v9.68h8.08c2.82,0,4.55-1.86,4.55-4.87,0-2.69-1.41-4.81-4.55-4.81ZM424.11,46.24c4.17,0,6.22-2.69,6.22-5.64,0-2.76-1.86-5.64-6.09-5.64h-8.78v11.28h8.65Z"/><path class="cls-1" d="M457.11,46.24h19.35v7.88h-28.26V9.97h27.69v7.88h-18.78v10.51h16.47v8.01h-16.47v9.87Z"/></g></svg>